<?xml version="1.0" encoding="utf-8"?>
<!-- Generator: Adobe Illustrator 27.0.0, SVG Export Plug-In . SVG Version: 6.00 Build 0)  -->
<svg version="1.1" id="Слой_1" xmlns="http://www.w3.org/2000/svg" xmlns:xlink="http://www.w3.org/1999/xlink" x="0px" y="0px"
	 viewBox="0 0 1080 1080" style="enable-background:new 0 0 1080 1080;" xml:space="preserve">
<style type="text/css">
	.st0{fill:#FF0000;stroke:#FF0000;stroke-miterlimit:10;}
	.st1{stroke:#000000;stroke-miterlimit:10;}
	.st2{fill:#FF0000;}
</style>
<polygon class="st0" points="607.6,544.9 591,613.2 959.8,456.5 666.1,319 650.5,377.6 803.7,455.5 "/>
<polygon class="st0" points="120.2,451.2 423.8,585.6 438.9,527.1 273.9,451.7 484.1,351.8 500.7,287.6 "/>
<path class="st1" d="M481,658.6"/>
<path class="st1" d="M496.1,611.2l2.7,0.8c14.8,4.3,30.2-4.1,34.6-18.6L590,403.5c4.3-14.5-4.1-29.8-18.9-34.1l-2.7-0.8
	c-14.8-4.3-30.2,4.1-34.6,18.6l-56.5,189.8C472.9,591.6,481.4,606.9,496.1,611.2z"/>
<path class="st0" d="M584.2,347.8L584.2,347.8c16.2,0,29.3-12.9,29.3-28.8l0,0c0-15.9-13.1-28.8-29.3-28.8l0,0
	c-16.2,0-29.3,12.9-29.3,28.8l0,0C554.9,334.9,568,347.8,584.2,347.8z"/>
<g>
	<g>
		<path d="M162.1,709.7h18v82.8h-18V709.7z"/>
		<path d="M233.6,796.6l0.6-9.6c-4,4.1-9.8,7-15.2,7c-15.1,0-24.8-12.4-24.8-33c0-20.6,12.4-33,25.1-33c6.6,0,11.4,2.4,16.2,7.7h0.4
			l1.5-6.2h14v86.4h-17.9V796.6z M233.6,773v-25.9c-3.2-3-6.7-4-10-4c-5.8,0-10.9,5.6-10.9,17.6c0,12.4,4.1,17.9,11.1,17.9
			C227.5,778.7,230.6,777.2,233.6,773z"/>
		<path d="M283.3,785.7h-0.4l-1.5,6.7h-14v-89h17.9v21.7l-0.4,9.7c4.6-4.3,10.3-7,16-7c14.7,0,23.7,12.6,23.7,31.9
			c0,21.7-12.4,34.1-25.5,34.1C293.7,793.9,288.1,791.1,283.3,785.7z M306.2,760.1c0-11.3-3.4-17-10.5-17c-3.7,0-6.9,1.7-10.4,5.6
			v25.9c3.2,3,6.6,4,9.7,4C301.2,778.7,306.2,773.2,306.2,760.1z"/>
		<path d="M333.8,760.9c0-20.9,14.2-33,29.5-33c15.3,0,29.5,12.1,29.5,33c0,20.9-14.2,33-29.5,33C348,793.9,333.8,781.8,333.8,760.9
			z M374.4,760.9c0-10.9-3.7-18-11.1-18c-7.4,0-11.1,7.1-11.1,18s3.7,17.9,11.1,17.9C370.7,778.9,374.4,771.8,374.4,760.9z"/>
		<path d="M405.1,772.8v-69.4H423v70.1c0,4,1.8,5.3,3.2,5.3c0.7,0,1.2,0,2.2-0.3l2.1,13.8c-2,0.9-4.9,1.6-9,1.6
			C409.3,793.9,405.1,785.6,405.1,772.8z"/>
		<path d="M434.6,785.1l8.1-11.6c5.5,4.3,10.6,6.6,15.6,6.6c5.3,0,7.7-2.1,7.7-5.4c0-4.2-6-6-12.2-8.6c-7.4-3-16-8.1-16-18.5
			c0-11.7,9.2-19.7,23.1-19.7c9.3,0,16.2,3.9,21.3,8l-8,11.2c-4.3-3.3-8.6-5.4-12.8-5.4c-4.6,0-6.9,1.9-6.9,5c0,4,5.7,5.6,11.9,7.9
			c7.7,3,16.3,7.4,16.3,19c0,11.4-8.6,20.3-24.9,20.3C449.9,793.9,440.8,790.3,434.6,785.1z"/>
		<path d="M494.1,703.5H512v21.7l-0.8,11.4c4.5-4.3,10.4-8.7,18.7-8.7c13.2,0,18.8,9.7,18.8,25.4v39.1h-17.9v-36.7
			c0-9.1-2.3-11.9-7.5-11.9c-4.5,0-7.3,2.2-11.2,6.1v42.5h-17.9V703.5z"/>
		<path d="M560.3,760.9c0-20.9,14.2-33,29.5-33s29.5,12.1,29.5,33c0,20.9-14.2,33-29.5,33S560.3,781.8,560.3,760.9z M600.9,760.9
			c0-10.9-3.7-18-11.1-18c-7.4,0-11.1,7.1-11.1,18s3.7,17.9,11.1,17.9C597.2,778.9,600.9,771.8,600.9,760.9z"/>
		<path d="M631.5,703.5h17.9v21.7l-0.8,11.4c4.5-4.3,10.4-8.7,18.7-8.7c13.2,0,18.8,9.7,18.8,25.4v39.1h-17.9v-36.7
			c0-9.1-2.3-11.9-7.5-11.9c-4.5,0-7.3,2.2-11.2,6.1v42.5h-17.9V703.5z"/>
		<path class="st2" d="M722.6,760.9c0-20.6,12.4-33,25.1-33c6.7,0,10.8,2.6,14.8,6.6l-0.6-9.5v-21.5h17.9v89h-14.6l-1.3-6.2h-0.4
			c-4.3,4.5-10.3,7.8-16.1,7.8C732.3,793.9,722.6,781.5,722.6,760.9z M761.9,773v-25.9c-3.2-3-6.7-4-10-4c-5.8,0-10.9,5.6-10.9,17.6
			c0,12.4,4.1,17.9,11.1,17.9C755.8,778.7,758.9,777.2,761.9,773z"/>
		<path class="st2" d="M792.1,760.9c0-20.4,14-33,28.6-33c17.3,0,25.8,13,25.8,30.2c0,3.4-0.4,6.7-0.7,8.2h-36.2
			c1.6,9.1,7.6,13.3,15.7,13.3c4.6,0,8.7-1.4,13.1-4.1l5.9,11.3c-6.2,4.5-14.3,7.1-21.5,7.1C805.5,793.9,792.1,781.8,792.1,760.9z
			 M831.2,754c0-6.9-2.9-11.9-10.1-11.9c-5.7,0-10.6,4-11.8,11.9H831.2z"/>
		<path class="st2" d="M852.4,729.4h18l7.9,29.7c1.6,6.3,3.1,12.8,4.7,19.4h0.5c1.6-6.6,3.1-13.1,4.7-19.4l7.9-29.7h17.2l-19.8,63
			h-20.7L852.4,729.4z"/>
	</g>
</g>
</svg>
